<mxfile host="app.diagrams.net" agent="Mozilla/5.0 (Windows NT 10.0; Win64; x64) AppleWebKit/537.36 (KHTML, like Gecko) Chrome/133.0.0.0 Safari/537.36" version="26.1.0">
  <diagram name="1 oldal" id="t4ujlqfDTW1Snce6limr">
    <mxGraphModel dx="1147" dy="590" grid="1" gridSize="10" guides="1" tooltips="1" connect="1" arrows="1" fold="1" page="1" pageScale="1" pageWidth="827" pageHeight="1169" math="0" shadow="0">
      <root>
        <mxCell id="0" />
        <mxCell id="1" parent="0" />
        <mxCell id="XywiZR7J--YRGBA5vVuA-10" style="rounded=0;orthogonalLoop=1;jettySize=auto;html=1;exitX=0.5;exitY=1;exitDx=0;exitDy=0;endArrow=none;startFill=0;entryX=0.5;entryY=0;entryDx=0;entryDy=0;" edge="1" parent="1" source="XywiZR7J--YRGBA5vVuA-1" target="XywiZR7J--YRGBA5vVuA-6">
          <mxGeometry relative="1" as="geometry" />
        </mxCell>
        <mxCell id="XywiZR7J--YRGBA5vVuA-11" style="rounded=0;orthogonalLoop=1;jettySize=auto;html=1;exitX=0.5;exitY=1;exitDx=0;exitDy=0;endArrow=none;startFill=0;entryX=0.5;entryY=0;entryDx=0;entryDy=0;" edge="1" parent="1" source="XywiZR7J--YRGBA5vVuA-1" target="XywiZR7J--YRGBA5vVuA-8">
          <mxGeometry relative="1" as="geometry" />
        </mxCell>
        <mxCell id="XywiZR7J--YRGBA5vVuA-12" style="rounded=0;orthogonalLoop=1;jettySize=auto;html=1;exitX=0.5;exitY=1;exitDx=0;exitDy=0;endArrow=none;startFill=0;entryX=0.5;entryY=0;entryDx=0;entryDy=0;" edge="1" parent="1" source="XywiZR7J--YRGBA5vVuA-1" target="XywiZR7J--YRGBA5vVuA-9">
          <mxGeometry relative="1" as="geometry" />
        </mxCell>
        <mxCell id="XywiZR7J--YRGBA5vVuA-32" style="rounded=0;orthogonalLoop=1;jettySize=auto;html=1;endArrow=none;startFill=1;startArrow=classic;entryX=0;entryY=0.5;entryDx=0;entryDy=0;endFill=1;" edge="1" parent="1" source="XywiZR7J--YRGBA5vVuA-1" target="XywiZR7J--YRGBA5vVuA-33">
          <mxGeometry relative="1" as="geometry">
            <mxPoint x="250" y="380" as="targetPoint" />
          </mxGeometry>
        </mxCell>
        <mxCell id="XywiZR7J--YRGBA5vVuA-1" value="Tanszék" style="rounded=0;whiteSpace=wrap;html=1;strokeWidth=2;" vertex="1" parent="1">
          <mxGeometry x="80" y="350" width="120" height="60" as="geometry" />
        </mxCell>
        <mxCell id="XywiZR7J--YRGBA5vVuA-2" value="Oktató" style="rounded=0;whiteSpace=wrap;html=1;strokeWidth=2;" vertex="1" parent="1">
          <mxGeometry x="354" y="350" width="120" height="60" as="geometry" />
        </mxCell>
        <mxCell id="XywiZR7J--YRGBA5vVuA-4" value="Tantárgy" style="rounded=0;whiteSpace=wrap;html=1;strokeWidth=2;" vertex="1" parent="1">
          <mxGeometry x="650" y="352.5" width="120" height="60" as="geometry" />
        </mxCell>
        <mxCell id="XywiZR7J--YRGBA5vVuA-6" value="kód" style="ellipse;whiteSpace=wrap;html=1;" vertex="1" parent="1">
          <mxGeometry y="460" width="70" height="30" as="geometry" />
        </mxCell>
        <mxCell id="XywiZR7J--YRGBA5vVuA-8" value="név" style="ellipse;whiteSpace=wrap;html=1;" vertex="1" parent="1">
          <mxGeometry x="105" y="460" width="70" height="30" as="geometry" />
        </mxCell>
        <mxCell id="XywiZR7J--YRGBA5vVuA-9" value="kar" style="ellipse;whiteSpace=wrap;html=1;" vertex="1" parent="1">
          <mxGeometry x="210" y="460" width="70" height="30" as="geometry" />
        </mxCell>
        <mxCell id="XywiZR7J--YRGBA5vVuA-13" style="rounded=0;orthogonalLoop=1;jettySize=auto;html=1;exitX=0.5;exitY=1;exitDx=0;exitDy=0;endArrow=none;startFill=0;entryX=0.5;entryY=0;entryDx=0;entryDy=0;" edge="1" parent="1" target="XywiZR7J--YRGBA5vVuA-16" source="XywiZR7J--YRGBA5vVuA-2">
          <mxGeometry relative="1" as="geometry">
            <mxPoint x="370" y="450" as="sourcePoint" />
          </mxGeometry>
        </mxCell>
        <mxCell id="XywiZR7J--YRGBA5vVuA-14" style="rounded=0;orthogonalLoop=1;jettySize=auto;html=1;endArrow=none;startFill=0;entryX=0.5;entryY=0;entryDx=0;entryDy=0;exitX=0.5;exitY=1;exitDx=0;exitDy=0;" edge="1" parent="1" target="XywiZR7J--YRGBA5vVuA-17" source="XywiZR7J--YRGBA5vVuA-2">
          <mxGeometry relative="1" as="geometry">
            <mxPoint x="370" y="410" as="sourcePoint" />
          </mxGeometry>
        </mxCell>
        <mxCell id="XywiZR7J--YRGBA5vVuA-15" style="rounded=0;orthogonalLoop=1;jettySize=auto;html=1;endArrow=none;startFill=0;entryX=0.5;entryY=0;entryDx=0;entryDy=0;exitX=0.5;exitY=1;exitDx=0;exitDy=0;" edge="1" parent="1" target="XywiZR7J--YRGBA5vVuA-18" source="XywiZR7J--YRGBA5vVuA-2">
          <mxGeometry relative="1" as="geometry">
            <mxPoint x="370" y="410" as="sourcePoint" />
          </mxGeometry>
        </mxCell>
        <mxCell id="XywiZR7J--YRGBA5vVuA-16" value="kód" style="ellipse;whiteSpace=wrap;html=1;" vertex="1" parent="1">
          <mxGeometry x="280" y="500" width="70" height="30" as="geometry" />
        </mxCell>
        <mxCell id="XywiZR7J--YRGBA5vVuA-17" value="név" style="ellipse;whiteSpace=wrap;html=1;" vertex="1" parent="1">
          <mxGeometry x="379" y="500" width="70" height="30" as="geometry" />
        </mxCell>
        <mxCell id="XywiZR7J--YRGBA5vVuA-18" value="kar" style="ellipse;whiteSpace=wrap;html=1;" vertex="1" parent="1">
          <mxGeometry x="470" y="500" width="70" height="30" as="geometry" />
        </mxCell>
        <mxCell id="XywiZR7J--YRGBA5vVuA-19" style="rounded=0;orthogonalLoop=1;jettySize=auto;html=1;endArrow=none;startFill=0;entryX=0.5;entryY=0;entryDx=0;entryDy=0;exitX=0.5;exitY=1;exitDx=0;exitDy=0;" edge="1" parent="1" target="XywiZR7J--YRGBA5vVuA-22" source="XywiZR7J--YRGBA5vVuA-4">
          <mxGeometry relative="1" as="geometry">
            <mxPoint x="710" y="412.5" as="sourcePoint" />
            <mxPoint x="595" y="482.5" as="targetPoint" />
          </mxGeometry>
        </mxCell>
        <mxCell id="XywiZR7J--YRGBA5vVuA-20" style="rounded=0;orthogonalLoop=1;jettySize=auto;html=1;exitX=0.5;exitY=1;exitDx=0;exitDy=0;endArrow=none;startFill=0;entryX=0.5;entryY=0;entryDx=0;entryDy=0;" edge="1" parent="1" target="XywiZR7J--YRGBA5vVuA-23" source="XywiZR7J--YRGBA5vVuA-4">
          <mxGeometry relative="1" as="geometry">
            <mxPoint x="655.08" y="410" as="sourcePoint" />
          </mxGeometry>
        </mxCell>
        <mxCell id="XywiZR7J--YRGBA5vVuA-21" style="rounded=0;orthogonalLoop=1;jettySize=auto;html=1;endArrow=none;startFill=0;entryX=0.5;entryY=0;entryDx=0;entryDy=0;exitX=0.5;exitY=1;exitDx=0;exitDy=0;" edge="1" parent="1" target="XywiZR7J--YRGBA5vVuA-24" source="XywiZR7J--YRGBA5vVuA-4">
          <mxGeometry relative="1" as="geometry">
            <mxPoint x="690" y="420" as="sourcePoint" />
          </mxGeometry>
        </mxCell>
        <mxCell id="XywiZR7J--YRGBA5vVuA-22" value="kód" style="ellipse;whiteSpace=wrap;html=1;" vertex="1" parent="1">
          <mxGeometry x="560" y="480" width="70" height="30" as="geometry" />
        </mxCell>
        <mxCell id="XywiZR7J--YRGBA5vVuA-23" value="név" style="ellipse;whiteSpace=wrap;html=1;" vertex="1" parent="1">
          <mxGeometry x="675" y="480" width="70" height="30" as="geometry" />
        </mxCell>
        <mxCell id="XywiZR7J--YRGBA5vVuA-24" value="kar" style="ellipse;whiteSpace=wrap;html=1;" vertex="1" parent="1">
          <mxGeometry x="790" y="480" width="70" height="30" as="geometry" />
        </mxCell>
        <mxCell id="XywiZR7J--YRGBA5vVuA-35" style="rounded=0;orthogonalLoop=1;jettySize=auto;html=1;exitX=1;exitY=0.5;exitDx=0;exitDy=0;entryX=0;entryY=0.5;entryDx=0;entryDy=0;endArrow=classic;endFill=1;" edge="1" parent="1" source="XywiZR7J--YRGBA5vVuA-33" target="XywiZR7J--YRGBA5vVuA-2">
          <mxGeometry relative="1" as="geometry" />
        </mxCell>
        <mxCell id="XywiZR7J--YRGBA5vVuA-33" value="T-O" style="rhombus;whiteSpace=wrap;html=1;" vertex="1" parent="1">
          <mxGeometry x="250" y="352.5" width="60" height="55" as="geometry" />
        </mxCell>
        <mxCell id="XywiZR7J--YRGBA5vVuA-40" value="" style="edgeStyle=orthogonalEdgeStyle;rounded=0;orthogonalLoop=1;jettySize=auto;html=1;endArrow=doubleBlock;endFill=1;" edge="1" parent="1" source="XywiZR7J--YRGBA5vVuA-36" target="XywiZR7J--YRGBA5vVuA-4">
          <mxGeometry relative="1" as="geometry" />
        </mxCell>
        <mxCell id="XywiZR7J--YRGBA5vVuA-36" value="O-T" style="rhombus;whiteSpace=wrap;html=1;" vertex="1" parent="1">
          <mxGeometry x="530" y="355" width="60" height="55" as="geometry" />
        </mxCell>
        <mxCell id="XywiZR7J--YRGBA5vVuA-37" style="rounded=0;orthogonalLoop=1;jettySize=auto;html=1;exitX=0;exitY=0.5;exitDx=0;exitDy=0;entryX=0.989;entryY=0.563;entryDx=0;entryDy=0;entryPerimeter=0;endArrow=doubleBlock;endFill=1;startArrow=none;startFill=0;" edge="1" parent="1" source="XywiZR7J--YRGBA5vVuA-36" target="XywiZR7J--YRGBA5vVuA-2">
          <mxGeometry relative="1" as="geometry" />
        </mxCell>
      </root>
    </mxGraphModel>
  </diagram>
</mxfile>
